<?xml version="1.0" encoding="UTF-8"?>
<svg id="Layer_1" xmlns="http://www.w3.org/2000/svg" version="1.1" viewBox="0 0 975.1 283.5">
  <!-- Generator: Adobe Illustrator 29.8.2, SVG Export Plug-In . SVG Version: 2.1.1 Build 3)  -->
  <defs>
    <style>
      .st0 {
        fill: #00a1e5;
      }

      .st1 {
        fill: #143462;
      }

      .st2 {
        fill: #ffc200;
      }
    </style>
  </defs>
  <path class="st2" d="M41.7,41.5C68.3,15,104.3,0,141.9,0c37.6,0,73.6,14.8,100.2,41.4l100.3,100.3-100.3,100.3c-26.6,26.6-62.7,41.5-100.3,41.5s-73.7-14.9-100.3-41.5C14.9,215.3,0,179.3,0,141.6c0-37.6,14.9-73.7,41.5-100.3l.2.2Z"/>
  <path class="st0" d="M411.9,41.5C385.3,15,349.3,0,311.7,0c-37.6,0-73.6,14.8-100.2,41.4l-100.3,100.3,100.3,100.3c26.6,26.6,62.7,41.5,100.3,41.5s73.7-14.9,100.3-41.5c26.6-26.6,41.5-62.7,41.5-100.3,0-37.6-14.9-73.7-41.5-100.3l-.2.2Z"/>
  <path class="st1" d="M242.1,41.4c-4.8-4.8-9.9-9.2-15.3-13.2-5.4,4-10.5,8.4-15.3,13.2l-100.3,100.3,100.3,100.3c4.8,4.8,9.9,9.2,15.3,13.2,5.4-4,10.5-8.4,15.3-13.2l100.3-100.3-100.3-100.3Z"/>
  <g>
    <path class="st1" d="M836.1,211c0,4.5,3.6,8.1,8.1,8.1s8.1-3.6,8.1-8.1v-32.4l25,19.3v13.1c0,4.5,3.6,8.1,8.1,8.1s8.1-3.6,8.1-8.1v-49.7c0-4.5-3.6-8.1-8.1-8.1s-8.1,3.6-8.1,8.1v15.8l-28.6-22.3c-1.4-1.3-3.5-1.6-5-1.6-4.2,0-7.7,3.6-7.7,7.9v50Z"/>
    <path class="st1" d="M752.2,189.7c0,18.2,9.4,30,28.1,30s28.4-11.7,28.4-30v-28.5c0-4.5-3.6-8.1-8.1-8.1s-8.1,3.6-8.1,8.1v29.1c0,11-3.3,15.2-12,15.2s-12-4.2-12-15.2v-29.1c0-4.5-3.6-8.1-8.1-8.1s-8.1,3.6-8.1,8.1v28.5Z"/>
    <path class="st1" d="M699.2,152.3c-18.6,0-33.5,15.1-33.5,33.7s14.9,33.7,33.5,33.7,33.5-15.1,33.5-33.7-14.9-33.7-33.5-33.7ZM699.1,205.5c-9.9,0-17.1-9.1-17.1-19.2s7.2-18.7,17.1-18.7,17.3,8.6,17.3,18.7-7.2,19.2-17.3,19.2Z"/>
    <path class="st1" d="M636.2,193.9c6.5-3.6,10.3-10.3,10.3-19.1,0-12.7-8.9-21.7-20.5-21.7h-23.2c-4.5,0-8.1,3.6-8.1,8.1v49.7c0,4.5,3.6,8.1,8.1,8.1s8.1-3.6,8.1-8.1v-12.8h10l7.9,16.6c1.3,2.7,3.8,4.3,7,4.3,4.5,0,8-3.3,8-7.8s-.3-2.9-1-4.1l-6.6-13.4ZM625.1,182.7h-14.2v-13.2h14.2c2.7,0,4.8,1.7,4.8,6.4s-2.1,6.9-4.8,6.9Z"/>
    <path class="st1" d="M543.5,167.6c4.5,0,9.5,1.3,13.1,3.7,1.4,1.3,3,1.9,4.9,1.9,4.1,0,7.3-3.3,7.3-7.3s-1.3-4.6-3-6c-6.2-5-13.9-7.6-22.2-7.6-18.9,0-33.7,15.1-33.7,33.7s14.4,33.7,33.1,33.7,12.3-1.2,17.3-4.9l.3.6c1.3,2,2.8,3.7,5.1,3.7s5.2-2.2,5.2-5.3v-25.5c0-3.8-3-7-6.9-7h-15.8c-3.8,0-6.9,3.1-6.9,7s3,6.9,6.9,6.9h5.9v8.5c-3.6,1.9-6,1.9-10.7,1.9-9.4,0-17.4-9.1-17.4-19.2s7.3-18.7,17.3-18.7"/>
    <g>
      <path class="st1" d="M943.4,153.1h-16.4c-4.5,0-8.1,3.6-8.1,8.1v49.7c0,4.5,3.6,8.1,8.1,8.1h16.4c18.6,0,31.7-14.2,31.7-32.8s-13.1-33.2-31.7-33.2ZM941.8,203.8h-6.6v-35h6.6c9.9,0,17.1,8,17.1,17.9s-7.2,17.1-17.1,17.1Z"/>
      <path class="st1" d="M917.5,122.5c0,4.5,3.6,8.1,8.1,8.1s8.1-3.6,8.1-8.1v-32.4l25,19.3v13.1c0,4.5,3.6,8.1,8.1,8.1s8.1-3.6,8.1-8.1v-49.7c0-4.5-3.6-8.1-8.1-8.1s-8.1,3.6-8.1,8.1v15.8l-28.6-22.3c-1.4-1.3-3.5-1.6-5-1.6-4.2,0-7.7,3.6-7.7,7.9v50ZM866,131.2c18.6,0,33.5-15.1,33.5-33.7s-14.9-33.7-33.5-33.7-33.5,15.1-33.5,33.7,14.9,33.7,33.5,33.7M865.9,117c-9.9,0-17.1-9.1-17.1-19.2s7.2-18.7,17.1-18.7,17.3,8.6,17.3,18.7-7.2,19.2-17.3,19.2M782.8,92.4c-.3,0-.7-.3-1.3-.9l-22.6-24.4c-1.3-1-2.4-2.4-4.3-2.4s-3,1-3.6,2.4v55.4c0,4.5,3.6,8.1,8.1,8.1s8.1-3.6,8.1-8.1v-23.5l13.7,14.9c.8.8.9,1,1.7,1s.9-.2,1.7-1l13.7-14.9v23.5c0,4.5,3.6,8.1,8.1,8.1s8.1-3.6,8.1-8.1v-55.4c-.6-1.4-1.9-2.4-3.6-2.4s-3,1.4-4.3,2.4l-22.5,24.4c-.6.6-.9.9-1.3.9M698.4,92.4c-.3,0-.7-.3-1.3-.9l-22.5-24.4c-1.3-1-2.4-2.4-4.3-2.4s-3,1-3.6,2.4v55.4c0,4.5,3.6,8.1,8.1,8.1s8.1-3.6,8.1-8.1v-23.5l13.7,14.9c.8.8.9,1,1.7,1s.9-.2,1.7-1l13.7-14.9v23.5c0,4.5,3.6,8.1,8.1,8.1s8.1-3.6,8.1-8.1v-55.4c-.6-1.4-1.9-2.4-3.6-2.4s-3,1.4-4.3,2.4l-22.6,24.4c-.6.6-.9.9-1.3.9M615.2,131.2c18.6,0,33.5-15.1,33.5-33.7s-14.9-33.7-33.5-33.7-33.5,15.1-33.5,33.7,14.9,33.7,33.5,33.7M615.1,117c-9.9,0-17.1-9.1-17.1-19.2s7.2-18.7,17.1-18.7,17.3,8.6,17.3,18.7-7.2,19.2-17.3,19.2M558.1,112.7c-5.6,4.1-8.5,4.3-14.4,4.3-9.4,0-17.4-9.1-17.4-19.2s7.3-18.7,17.3-18.7,9.5,1.3,13.1,3.7c1.4,1.3,3,1.9,4.9,1.9,4.1,0,7.3-3.3,7.3-7.3s-1.3-4.6-3-6c-6.2-5-13.9-7.6-22.2-7.6-18.9,0-33.7,15.1-33.7,33.7s14.4,33.7,33.1,33.7,17.9-2.2,23.9-8.4c1.2-1.3,1.7-2.8,1.7-4.4,0-3.8-3.1-7-7-7s-2.7.5-3.7,1.3"/>
    </g>
  </g>
</svg>